<svg width="368" height="296" viewBox="0 0 368 296" fill="none" xmlns="http://www.w3.org/2000/svg">
<mask id="mask0_480_883" style="mask-type:alpha" maskUnits="userSpaceOnUse" x="0" y="0" width="278" height="278">
<circle cx="138.797" cy="138.797" r="138.797" fill="#FB6A1D"/>
</mask>
<g mask="url(#mask0_480_883)">
<circle cx="138.797" cy="138.797" r="138.797" fill="#FF0040"/>
<g style="mix-blend-mode:darken">
<path fill-rule="evenodd" clip-rule="evenodd" d="M374.335 61.8465C383.545 68.0181 386.007 80.4867 379.836 89.696L260.519 267.74C248.069 286.318 222.11 289.689 205.327 274.907L140.396 217.714C132.077 210.386 131.273 197.702 138.601 189.383C145.929 181.064 158.613 180.26 166.932 187.588L197.483 214.498C214.265 229.281 240.225 225.91 252.675 207.331L346.486 67.3467C352.657 58.1374 365.126 55.6749 374.335 61.8465Z" fill="#A64D1E"/>
</g>
<g style="mix-blend-mode:darken">
<path fill-rule="evenodd" clip-rule="evenodd" d="M59.1401 283.415C95.456 291.893 208.778 267.367 259.098 68.9768L330.148 86.9978C273.945 308.585 131.602 375.603 42.4759 354.796L59.1401 283.415Z" fill="#A64D1E"/>
</g>
</g>
<mask id="mask1_480_883" style="mask-type:alpha" maskUnits="userSpaceOnUse" x="110" y="51" width="251" height="226">
<path fill-rule="evenodd" clip-rule="evenodd" d="M351.325 54.5028C360.535 60.6744 362.997 73.143 356.826 82.3522L237.509 260.396C225.059 278.974 199.099 282.345 182.317 267.563L117.386 210.37C109.067 203.042 108.263 190.358 115.591 182.039C122.919 173.72 135.603 172.917 143.922 180.244L174.473 207.154C191.255 221.937 217.215 218.566 229.665 199.987L323.476 60.0029C329.647 50.7937 342.116 48.3312 351.325 54.5028Z" fill="#D9BCAD"/>
</mask>
<g mask="url(#mask1_480_883)">
<path fill-rule="evenodd" clip-rule="evenodd" d="M351.325 54.5028C360.535 60.6744 362.997 73.143 356.826 82.3522L237.509 260.396C225.059 278.974 199.099 282.345 182.317 267.563L117.386 210.37C109.067 203.042 108.263 190.358 115.591 182.039C122.919 173.72 135.603 172.917 143.922 180.244L174.473 207.154C191.255 221.937 217.215 218.566 229.665 199.987L323.476 60.0029C329.647 50.7937 342.116 48.3312 351.325 54.5028Z" fill="#F9E3D9"/>
<g style="mix-blend-mode:overlay">
<path fill-rule="evenodd" clip-rule="evenodd" d="M376.626 65.8189C386.091 72.1616 388.404 85.0911 381.726 94.3222L228.028 306.773C215.231 324.463 189.978 327.282 173.594 312.851L107.54 254.668C99.2207 247.34 98.417 234.656 105.745 226.337C113.072 218.018 125.756 217.215 134.075 224.542L165.931 252.602C182.25 266.976 207.386 264.244 220.236 246.701L349.198 70.6428C355.57 61.9434 367.668 59.8157 376.626 65.8189Z" fill="#0E1E28"/>
</g>
</g>
</svg>
