<svg width="467" height="411" viewBox="0 0 467 411" fill="none" xmlns="http://www.w3.org/2000/svg">
<path fill-rule="evenodd" clip-rule="evenodd" d="M332.797 112.394C364.151 102.31 394.806 111.549 432.654 149.233C436.38 152.943 442.203 152.809 445.54 148.787L456.545 135.526C459.658 131.775 459.454 125.996 455.994 122.518C416.495 82.8231 379.91 67.9088 337.003 81.7083C293.993 95.5408 248.685 137.106 194.255 196.651C191.131 200.069 190.941 205.501 193.799 209.259L196.376 212.646C199.735 217.062 205.895 217.38 209.573 213.37C262.938 155.175 300.314 122.841 332.797 112.394Z" fill="#2489C6" fill-opacity="0.9"/>
<path fill-rule="evenodd" clip-rule="evenodd" d="M332.797 112.394C364.151 102.31 394.806 111.549 432.654 149.233C436.1 152.664 443.769 149.841 444.9 149.398C444.996 149.36 445.385 149.037 445.462 148.968C446.22 148.291 449.532 143.977 450.181 143.195C451.344 141.792 452.306 140.634 454.318 138.209C457.594 134.262 381.59 86.9192 338.683 100.719C295.673 114.551 250.365 156.116 195.935 215.662C192.811 219.079 192.621 224.511 195.479 228.269L198.056 231.656C201.414 236.072 207.575 236.391 211.253 232.38C264.618 174.185 300.314 122.841 332.797 112.394Z" fill="#2279AD" fill-opacity="0.9"/>
<mask id="mask0_480_877" style="mask-type:alpha" maskUnits="userSpaceOnUse" x="91" y="78" width="228" height="255">
<path d="M100.046 135.633C99.2135 135.228 98.4845 136.34 99.1877 136.943L176.594 203.254C176.989 203.593 176.955 204.215 176.524 204.507L91.9068 261.902C91.14 262.423 91.7412 263.61 92.6144 263.3L188.872 229.118C189.365 228.943 189.888 229.286 189.924 229.808L196.982 331.71C197.046 332.635 198.375 332.712 198.546 331.802L217.418 231.312C217.514 230.801 218.071 230.52 218.539 230.748L310.226 275.273C311.059 275.677 311.788 274.565 311.085 273.963L233.678 207.651C233.283 207.313 233.318 206.691 233.749 206.398L318.366 149.003C319.132 148.483 318.531 147.295 317.658 147.605L221.4 181.787C220.908 181.962 220.384 181.619 220.348 181.098L213.291 79.195C213.226 78.2705 211.898 78.193 211.727 79.1038L192.854 179.593C192.758 180.105 192.202 180.385 191.733 180.157L100.046 135.633Z" fill="#FB6A1D"/>
</mask>
<g mask="url(#mask0_480_877)">
<path d="M100.046 135.633C99.2135 135.228 98.4845 136.34 99.1877 136.943L176.594 203.254C176.989 203.593 176.955 204.215 176.524 204.507L91.9068 261.902C91.14 262.423 91.7412 263.61 92.6144 263.3L188.872 229.118C189.365 228.943 189.888 229.286 189.924 229.808L196.982 331.71C197.046 332.635 198.375 332.712 198.546 331.802L217.418 231.312C217.514 230.801 218.071 230.52 218.539 230.748L310.226 275.273C311.059 275.677 311.788 274.565 311.085 273.963L233.678 207.651C233.283 207.313 233.318 206.691 233.749 206.398L318.366 149.003C319.132 148.483 318.531 147.295 317.658 147.605L221.4 181.787C220.908 181.962 220.384 181.619 220.348 181.098L213.291 79.195C213.226 78.2705 211.898 78.193 211.727 79.1038L192.854 179.593C192.758 180.105 192.202 180.385 191.733 180.157L100.046 135.633Z" fill="#FB6A1D"/>
<g style="mix-blend-mode:color-dodge">
<path d="M101.657 134.85C100.815 134.418 100.064 135.563 100.796 136.163L181.761 202.5C182.176 202.84 182.139 203.484 181.689 203.775L93.7563 260.527C92.9609 261.04 93.5775 262.263 94.4632 261.929L192.389 224.993C192.89 224.805 193.43 225.158 193.457 225.693L198.655 330.224C198.702 331.17 200.07 331.247 200.223 330.313L217.183 227.04C217.269 226.511 217.846 226.221 218.322 226.465L311.453 274.243C312.295 274.675 313.046 273.53 312.314 272.93L231.348 206.593C230.934 206.254 230.971 205.609 231.42 205.319L319.353 148.566C320.149 148.053 319.532 146.83 318.646 147.164L220.72 184.1C220.219 184.289 219.679 183.935 219.653 183.4L214.455 78.869C214.408 77.9235 213.04 77.8461 212.887 78.7802L195.927 182.053C195.84 182.582 195.264 182.872 194.787 182.628L101.657 134.85Z" fill="#A64917"/>
</g>
</g>
</svg>
