<svg width="351" height="351" viewBox="0 0 351 351" fill="none" xmlns="http://www.w3.org/2000/svg">
<path d="M51.864 306.224H18.744L10.296 326H5.88L34.296 258.8H39.096L70.392 326H61.08L51.864 306.224ZM49.848 301.904L34.776 269.552H34.392L20.568 301.904H49.848ZM143.489 313.616L146.369 316.208C145.537 317.168 144.321 318.288 142.721 319.568C141.121 320.848 139.105 322.064 136.673 323.216C134.305 324.304 131.489 325.232 128.225 326C125.025 326.768 121.377 327.152 117.281 327.152C110.816 327.152 105.248 326.16 100.577 324.176C95.9045 322.128 92.0645 319.472 89.0565 316.208C86.0485 312.88 83.8085 309.104 82.3365 304.88C80.9285 300.592 80.2245 296.208 80.2245 291.728C80.2245 286.544 81.1205 281.872 82.9125 277.712C84.7045 273.488 87.2325 269.904 90.4965 266.96C93.7605 263.952 97.6645 261.648 102.208 260.048C106.816 258.448 111.905 257.648 117.473 257.648C121.313 257.648 124.737 258.032 127.745 258.8C130.753 259.568 133.377 260.624 135.617 261.968C137.857 263.312 139.713 264.912 141.185 266.768C142.721 268.624 143.969 270.64 144.929 272.816H137.825C137.377 271.472 136.577 270.16 135.425 268.88C134.337 267.536 132.896 266.352 131.104 265.328C129.376 264.304 127.361 263.472 125.057 262.832C122.817 262.192 120.321 261.872 117.569 261.872C113.537 261.872 109.793 262.608 106.337 264.08C102.945 265.552 100.001 267.6 97.5045 270.224C95.0085 272.848 93.0565 275.984 91.6485 279.632C90.3045 283.216 89.6325 287.184 89.6325 291.536C89.6325 295.632 90.2725 299.568 91.5525 303.344C92.8965 307.12 94.8485 310.448 97.4085 313.328C99.9685 316.208 103.169 318.512 107.009 320.24C110.849 321.968 115.265 322.832 120.257 322.832C129.217 322.832 136.961 319.76 143.489 313.616ZM186.616 326H177.88V264.08H152.152V258.8H212.344V264.08H186.616V326ZM235.48 297.968V326H226.744V258.8H249.208C252.92 258.8 256.152 259.344 258.904 260.432C261.656 261.52 263.928 262.992 265.72 264.848C267.576 266.64 268.952 268.784 269.848 271.28C270.744 273.712 271.192 276.272 271.192 278.96C271.192 281.776 270.68 284.432 269.656 286.928C268.632 289.36 267.096 291.536 265.048 293.456C263.064 295.312 260.568 296.784 257.56 297.872C254.552 298.96 251.096 299.504 247.192 299.504C244.888 299.504 242.776 299.376 240.856 299.12C238.936 298.8 237.144 298.416 235.48 297.968ZM235.48 263.024V294.032C236.824 294.544 238.328 294.896 239.992 295.088C241.656 295.216 243.48 295.28 245.464 295.28C248.344 295.28 250.808 294.8 252.856 293.84C254.904 292.88 256.6 291.632 257.944 290.096C259.288 288.56 260.248 286.864 260.824 285.008C261.464 283.088 261.784 281.2 261.784 279.344C261.784 277.424 261.432 275.504 260.728 273.584C260.088 271.6 259.096 269.84 257.752 268.304C256.408 266.704 254.712 265.424 252.664 264.464C250.616 263.504 248.248 263.024 245.56 263.024H235.48ZM326.735 306.224H293.615L285.167 326H280.751L309.167 258.8H313.967L345.263 326H335.951L326.735 306.224ZM324.719 301.904L309.647 269.552H309.263L295.439 301.904H324.719Z" fill="#FEE4B1"/>
<g clip-path="url(#clip0_513_138)">
<path d="M175.5 0C175.5 0 150.414 23.0351 150.414 57.7333C152.372 79.6874 168.78 96.5064 175.5 100.29C182.22 96.4856 198.607 79.6874 200.586 57.7333C200.586 23.0351 175.5 0 175.5 0Z" fill="url(#paint0_linear_513_138)"/>
<path d="M175.5 79.2923C169.584 75.9451 156.144 62.4733 151.692 44.2822C150.888 48.5441 150.414 53.0347 150.414 57.7332C152.372 79.6873 168.78 96.5063 175.5 100.29C182.22 96.4855 198.607 79.6873 200.586 57.7332C200.586 53.014 200.112 48.5234 199.308 44.2822C194.856 62.4733 181.437 75.9451 175.5 79.2923Z" fill="url(#paint1_linear_513_138)"/>
<path d="M211.697 30.8521C214.232 38.8977 215.902 47.9205 215.902 57.7541V58.4609L215.84 59.147C213.944 80.2695 202.277 96.9221 192.403 106.423L275.762 219H351.021L211.697 30.8521Z" fill="url(#paint2_linear_513_138)"/>
<path d="M215.902 58.4404L215.84 59.1265C213.944 80.249 202.277 96.9016 192.403 106.403L239.133 169.52C253.418 102.577 211.697 30.8315 211.697 30.8315C214.232 38.8772 215.902 47.9 215.902 57.7336V58.4404Z" fill="url(#paint3_linear_513_138)"/>
<path d="M351 219C310.021 163.762 239.133 169.541 239.133 169.541L275.741 219H351Z" fill="url(#paint4_linear_513_138)"/>
<path d="M139.303 30.8521C136.768 38.8977 135.098 47.9205 135.098 57.7541V58.4609L135.16 59.147C137.057 80.2695 148.724 96.9221 158.597 106.423L75.2378 219H0L139.303 30.8521Z" fill="url(#paint5_linear_513_138)"/>
<path d="M135.098 58.4404L135.16 59.1265C137.057 80.249 148.724 96.9016 158.597 106.403L111.867 169.52C97.5825 102.577 139.303 30.8315 139.303 30.8315C136.768 38.8772 135.098 47.9 135.098 57.7336V58.4404Z" fill="url(#paint6_linear_513_138)"/>
<path d="M0 219C40.9789 163.762 111.867 169.541 111.867 169.541L75.2585 219H0Z" fill="url(#paint7_linear_513_138)"/>
</g>
<defs>
<linearGradient id="paint0_linear_513_138" x1="170.017" y1="-1.30976" x2="182.323" y2="124.989" gradientUnits="userSpaceOnUse">
<stop stop-color="#FFFDCE"/>
<stop offset="1" stop-color="#FB4B00"/>
</linearGradient>
<linearGradient id="paint1_linear_513_138" x1="175.479" y1="57.7748" x2="173.676" y2="110.227" gradientUnits="userSpaceOnUse">
<stop stop-color="#FB4B00"/>
<stop offset="1" stop-color="#FFFDCE"/>
</linearGradient>
<linearGradient id="paint2_linear_513_138" x1="192.403" y1="124.926" x2="351" y2="124.926" gradientUnits="userSpaceOnUse">
<stop offset="0.01" stop-color="#2489C6"/>
<stop offset="0.153154" stop-color="#0386EA"/>
<stop offset="1" stop-color="#232763"/>
</linearGradient>
<linearGradient id="paint3_linear_513_138" x1="192.403" y1="100.186" x2="242.122" y2="100.186" gradientUnits="userSpaceOnUse">
<stop stop-color="#FFFDCE"/>
<stop offset="1" stop-color="#FB4B00"/>
</linearGradient>
<linearGradient id="paint4_linear_513_138" x1="239.133" y1="194.177" x2="351" y2="194.177" gradientUnits="userSpaceOnUse">
<stop stop-color="#FFFDCE"/>
<stop offset="1" stop-color="#C5592F"/>
</linearGradient>
<linearGradient id="paint5_linear_513_138" x1="0" y1="-5.23585e-05" x2="158.597" y2="-5.23585e-05" gradientUnits="userSpaceOnUse">
<stop offset="0.01" stop-color="#2489C6"/>
<stop offset="0.0981537" stop-color="#0386EA"/>
<stop offset="1" stop-color="#232763"/>
</linearGradient>
<linearGradient id="paint6_linear_513_138" x1="108.879" y1="100.186" x2="158.597" y2="100.186" gradientUnits="userSpaceOnUse">
<stop stop-color="#FFFDCE"/>
<stop offset="1" stop-color="#FB4B00"/>
</linearGradient>
<linearGradient id="paint7_linear_513_138" x1="0" y1="194.177" x2="111.867" y2="194.177" gradientUnits="userSpaceOnUse">
<stop stop-color="#FFFDCE"/>
<stop offset="1" stop-color="#C5592F"/>
</linearGradient>
<clipPath id="clip0_513_138">
<rect width="351" height="219" fill="white"/>
</clipPath>
</defs>
</svg>
