<svg width="1920" height="6561" viewBox="0 0 1920 6561" fill="none" xmlns="http://www.w3.org/2000/svg">
<g clip-path="url(#clip0_480_439)">
<rect width="1920" height="6561" fill="url(#paint0_linear_480_439)"/>
<g opacity="0.6">
<path fill-rule="evenodd" clip-rule="evenodd" d="M496.937 2378.81C346.768 2631.82 396.937 2918.68 729.93 3327.15C762.706 3367.36 752.754 3417.94 706.36 3438.77L553.364 3507.48C510.089 3526.92 450.778 3513.2 420.004 3475.79C68.6972 3048.73 -31.2865 2698.36 174.222 2352.12C380.222 2005.04 875.665 1695.23 1570.01 1342.9C1609.86 1322.68 1666.17 1332.25 1700.72 1364.98L1731.87 1394.49C1772.47 1432.95 1766.69 1487.42 1719.91 1511.25C1041.07 1857.07 652.517 2116.69 496.937 2378.81Z" fill="#7570C0"/>
<path fill-rule="evenodd" clip-rule="evenodd" d="M496.937 2378.81C346.768 2631.82 396.937 2918.68 729.93 3327.15C759.957 3363.98 720.604 3424.31 713.791 3434.17C713.138 3435.12 708.624 3438.28 707.657 3438.91C699.152 3444.37 651.991 3463.19 642.77 3467.33C626.166 3474.79 612.828 3480.78 584.321 3493.58C538.781 3514.03 162.333 2752.33 367.841 2406.09C573.841 2059.01 1069.28 1749.2 1763.62 1396.87C1803.48 1376.65 1859.79 1386.22 1894.34 1418.95L1925.49 1448.46C1966.09 1486.92 1960.31 1541.39 1913.53 1565.22C1234.69 1911.03 652.517 2116.69 496.937 2378.81Z" fill="#5E43AC"/>
</g>
<path fill-rule="evenodd" clip-rule="evenodd" d="M670 4268C794.967 3967.33 594 3205.5 -453.939 3480.11C-490.611 3440.59 -485.658 3383.4 -441.405 3353.68L-295.471 3255.67C-269.089 3237.95 -234.835 3234.2 -204.568 3243.39C-172.452 3253.14 -138.173 3267.49 -105.016 3262.28C1388.86 3027.6 1319.47 3844.54 1150 4182.5C978.5 4524.5 385.305 5470.56 -273 5960C-310.787 5988.1 -356.638 5646.35 -394.345 5615.32L-428.339 5587.35C-472.65 5550.88 -472.239 5490.02 -427.896 5456.95C215.58 4976.93 540.531 4579.51 670 4268Z" fill="#7570C0"/>
<path fill-rule="evenodd" clip-rule="evenodd" d="M670 4268C794.967 3967.33 594 3205.5 -453.939 3480.11C-487.738 3443.69 -453.794 3370.82 -448.267 3359.63C-447.772 3358.62 -443.917 3354.83 -443.092 3354.07C-435.362 3347 -385.216 3326.74 -375.225 3329.88C-362.66 3333.83 -350.787 3339.58 -329.954 3327.48C-326.667 3325.57 -322.816 3324.28 -319.018 3324.13C989.139 3273.21 1034.69 3949.57 833.446 4322.71C631.892 4696.42 198.04 5099.9 -460.265 5589.35C-498.052 5617.44 -555.196 5615.11 -592.903 5584.08L-626.897 5556.11C-666.413 5523.59 -762.254 5090.17 -751.085 4973.29C-749.246 4954.04 -731.776 4945.4 -712.506 4943.87C-106.29 4895.57 542.599 4574.53 670 4268Z" fill="#5E43AC"/>
<g filter="url(#filter0_f_480_439)">
<mask id="mask0_480_439" style="mask-type:alpha" maskUnits="userSpaceOnUse" x="-192" y="297" width="312" height="312">
<circle cx="-35.9263" cy="453.073" r="155.834" transform="rotate(12.1171 -35.9263 453.073)" fill="#FB6A1D"/>
</mask>
<g mask="url(#mask0_480_439)">
<circle cx="-35.9263" cy="453.073" r="155.834" transform="rotate(12.1171 -35.9263 453.073)" fill="#91CBF4"/>
<g style="mix-blend-mode:darken">
<path fill-rule="evenodd" clip-rule="evenodd" d="M-157.451 593.05C-119.584 610.915 10.5941 610.699 112.587 404.779L186.334 441.306C72.4152 671.304 -99.6333 711.325 -192.567 667.479L-157.451 593.05Z" fill="#2489C6"/>
</g>
</g>
</g>
<path fill-rule="evenodd" clip-rule="evenodd" d="M1169.16 899.256C1027.15 1192.26 1188.61 1370.5 1359.69 1539.29C1394.04 1580.85 1385.81 1637.66 1339.93 1664.79L1188.61 1754.27C1150.1 1777.04 1097.6 1771.28 1063.98 1741.74C1056.5 1735.17 1049.28 1728.32 1041.07 1722.68C847.063 1589.29 653.683 1290.83 843.964 898.232C1038.77 496.288 1525.72 109.988 2211.02 -340.881C2250.36 -366.762 2307.27 -361.155 2343.14 -328.015L2375.47 -298.139C2417.62 -259.194 2413.72 -198.458 2367.55 -167.978C1697.59 274.324 1316.29 595.691 1169.16 899.256Z" fill="#7570C0"/>
<path fill-rule="evenodd" clip-rule="evenodd" d="M1169.16 899.256C1027.15 1192.26 1188.61 1370.5 1359.69 1539.29C1391.35 1577.59 1353.28 1648.39 1347.12 1659.25C1346.57 1660.22 1342.5 1663.79 1341.63 1664.5C1333.51 1671.11 1285.49 1696.98 1276.47 1702.31C1260.31 1711.87 1247.1 1719.68 1219.23 1736.16C1174.19 1762.8 846.057 1341.79 1040.4 940.809C1235.21 538.866 1722.16 152.565 2407.46 -298.304C2446.8 -324.184 2503.71 -318.577 2539.58 -285.438L2571.91 -255.561C2614.06 -216.617 2610.15 -155.881 2563.99 -125.401C1894.03 316.901 1316.29 595.691 1169.16 899.256Z" fill="#5E43AC"/>
<path fill-rule="evenodd" clip-rule="evenodd" d="M1854.15 4783.21C1712.13 5076.22 1870.48 5478.38 2219.39 5900.63C2253.74 5942.19 2245.51 5998.99 2199.63 6026.13L2048.31 6115.61C2005.51 6140.92 1945.43 6130.98 1913.2 6092.34C1545.23 5651.16 1334.6 5183.17 1528.95 4782.19C1723.76 4380.24 2210.7 3993.94 2896.01 3543.07C2935.34 3517.19 2992.26 3522.8 3028.12 3555.94L3060.46 3585.82C3102.6 3624.76 3098.7 3685.5 3052.53 3715.98C2382.58 4158.28 2001.27 4479.65 1854.15 4783.21Z" fill="#7570C0"/>
<path fill-rule="evenodd" clip-rule="evenodd" d="M1854.15 4783.21C1712.13 5076.22 1870.48 5478.38 2219.39 5900.63C2251.04 5938.93 2212.98 6009.73 2206.82 6020.59C2206.26 6021.56 2202.2 6025.13 2201.33 6025.83C2193.21 6032.45 2145.18 6058.32 2136.17 6063.65C2120.01 6073.21 2106.8 6081.02 2078.93 6097.5C2033.88 6124.14 1531.04 5225.75 1725.39 4824.76C1920.2 4422.82 2407.14 4036.52 3092.45 3585.65C3131.78 3559.77 3188.7 3565.38 3224.56 3598.52L3256.9 3628.39C3299.04 3667.34 3295.14 3728.07 3248.97 3758.55C2579.02 4200.86 2001.27 4479.65 1854.15 4783.21Z" fill="#5E43AC"/>
<path fill-rule="evenodd" clip-rule="evenodd" d="M1112.62 521.862C735.545 488.698 326.387 758.927 -17.7667 1232.53C-45.1061 1270.15 -93.4723 1285.07 -135.668 1271.6C-155.762 1265.19 -168.022 1246.2 -174.562 1226.15L-225.441 1070.15C-231.982 1050.09 -246.043 1033.55 -258.269 1016.36C-281.646 983.492 -283.128 938.629 -258.247 904.049C100.108 405.999 480.678 169.828 996.715 215.213C1513.99 260.707 2119 586.728 2867.25 1077.41C2910.2 1105.58 2924.44 1161.11 2900.49 1206.27L2878.89 1246.98C2850.73 1300.05 2781.76 1317.23 2731.23 1284.2C1998.04 805.033 1503.29 556.221 1112.62 521.862Z" fill="#A29BD4"/>
<path fill-rule="evenodd" clip-rule="evenodd" d="M1112.62 521.862C735.545 488.698 326.387 758.927 -17.7667 1232.53C-49.2502 1275.86 -143.009 1263.75 -156.092 1261.82C-157.135 1261.67 -161.807 1259.42 -162.742 1258.93C-172.494 1253.84 -205.605 1204.93 -204.659 1193.97C-200.71 1148.25 -171.807 1085.54 -204.342 1061.92C-250.183 1028.64 504.016 369.468 1020.05 414.854C1537.32 460.348 2142.34 786.369 2890.58 1277.05C2933.53 1305.22 2947.78 1360.75 2923.82 1405.91L2902.22 1446.62C2874.07 1499.69 2805.1 1516.87 2754.57 1483.85C2021.38 1004.67 1503.29 556.221 1112.62 521.862Z" fill="#474199"/>
<path d="M1550.56 1035.59C1550.88 1034.71 1552.12 1034.71 1552.44 1035.59L1561.76 1061.27C1561.86 1061.55 1562.08 1061.77 1562.36 1061.87L1588.33 1071.06C1589.22 1071.37 1589.22 1072.63 1588.33 1072.94L1562.36 1082.13C1562.08 1082.23 1561.86 1082.45 1561.76 1082.73L1552.44 1108.41C1552.12 1109.29 1550.88 1109.29 1550.56 1108.41L1541.24 1082.73C1541.14 1082.45 1540.92 1082.23 1540.64 1082.13L1514.67 1072.94C1513.78 1072.63 1513.78 1071.37 1514.67 1071.06L1540.64 1061.87C1540.92 1061.77 1541.14 1061.55 1541.24 1061.27L1550.56 1035.59Z" fill="#FFFDCE"/>
<path d="M124.375 2795.15C124.959 2794.26 126.337 2794.77 126.201 2795.82L120.627 2838.99C120.578 2839.37 120.75 2839.74 121.07 2839.95L157.573 2863.96C158.46 2864.54 157.946 2865.92 156.893 2865.78L113.577 2860.1C113.197 2860.05 112.823 2860.22 112.612 2860.54L88.6242 2896.86C88.0401 2897.74 86.6623 2897.23 86.798 2896.18L92.3717 2853.01C92.4207 2852.63 92.249 2852.26 91.9294 2852.05L55.4264 2828.04C54.539 2827.46 55.053 2826.08 56.1059 2826.22L99.4224 2831.9C99.8017 2831.95 100.176 2831.78 100.387 2831.46L124.375 2795.15Z" fill="#3EC3FF"/>
<path d="M1150.05 139.998C1150.65 139.281 1151.82 139.709 1151.82 140.645L1151.75 157.419C1151.75 157.718 1151.88 158.002 1152.11 158.193L1165.11 168.96C1165.84 169.561 1165.4 170.74 1164.46 170.73L1147.59 170.554C1147.29 170.551 1147 170.682 1146.81 170.911L1136.02 183.758C1135.42 184.474 1134.25 184.046 1134.26 183.111L1134.32 166.337C1134.32 166.038 1134.19 165.754 1133.96 165.563L1120.96 154.795C1120.24 154.194 1120.67 153.016 1121.61 153.025L1138.49 153.201C1138.79 153.204 1139.07 153.074 1139.26 152.844L1150.05 139.998Z" fill="#EAD4B5"/>
<path d="M131.395 894.196C131.464 893.108 132.975 892.9 133.336 893.928L145.75 929.277C148.814 938.002 156.806 944.044 166.036 944.613L203.634 946.931C204.724 946.998 204.933 948.513 203.902 948.873L168.338 961.29C159.607 964.338 153.551 972.318 152.965 981.547L150.591 1018.94C150.522 1020.02 149.011 1020.23 148.65 1019.21L136.236 983.856C133.172 975.131 125.18 969.09 115.95 968.52L78.3519 966.202C77.2624 966.135 77.0532 964.62 78.0838 964.26L113.648 951.844C122.379 948.796 128.435 940.815 129.021 931.586L131.395 894.196Z" fill="#3EC3FF"/>
<ellipse cx="1498.5" cy="908" rx="13.5" ry="7" fill="#D9D9D9"/>
<g filter="url(#filter1_f_480_439)">
<circle cx="800.5" cy="721.5" r="3.5" fill="#D9D9D9"/>
<circle cx="800.5" cy="283.5" r="3.5" fill="#D9D9D9"/>
<circle cx="509.5" cy="283.5" r="3.5" fill="#D9D9D9"/>
<ellipse cx="456" cy="243" rx="10" ry="7" fill="#D9D9D9"/>
<ellipse cx="459.5" cy="908" rx="13.5" ry="7" fill="#D9D9D9"/>
<ellipse cx="118" cy="101" rx="6" ry="7" fill="#D9D9D9"/>
<ellipse cx="630" cy="44.5" rx="7" ry="3.5" fill="#D9D9D9"/>
</g>
<g filter="url(#filter2_f_480_439)">
<circle cx="201.5" cy="2853.5" r="3.5" transform="rotate(-180 201.5 2853.5)" fill="#D9D9D9"/>
<ellipse cx="255" cy="2894" rx="10" ry="7" transform="rotate(-180 255 2894)" fill="#D9D9D9"/>
<ellipse cx="251.5" cy="2229" rx="13.5" ry="7" transform="rotate(-180 251.5 2229)" fill="#D9D9D9"/>
<ellipse cx="593" cy="3036" rx="6" ry="7" transform="rotate(-180 593 3036)" fill="#D9D9D9"/>
<ellipse cx="81" cy="3092.5" rx="7" ry="3.5" transform="rotate(-180 81 3092.5)" fill="#D9D9D9"/>
</g>
<g filter="url(#filter3_f_480_439)">
<circle cx="1857.5" cy="3659.5" r="3.5" fill="#D9D9D9"/>
<circle cx="1857.5" cy="3221.5" r="3.5" fill="#D9D9D9"/>
<circle cx="1566.5" cy="3221.5" r="3.5" fill="#D9D9D9"/>
<ellipse cx="1513" cy="3181" rx="10" ry="7" fill="#D9D9D9"/>
<ellipse cx="1516.5" cy="3846" rx="13.5" ry="7" fill="#D9D9D9"/>
<ellipse cx="1175" cy="3039" rx="6" ry="7" fill="#D9D9D9"/>
<ellipse cx="1687" cy="2982.5" rx="7" ry="3.5" fill="#D9D9D9"/>
</g>
<g filter="url(#filter4_f_480_439)">
<circle cx="1362.5" cy="2358.5" r="3.5" transform="rotate(90 1362.5 2358.5)" fill="#D9D9D9"/>
<circle cx="1800.5" cy="2358.5" r="3.5" transform="rotate(90 1800.5 2358.5)" fill="#D9D9D9"/>
<circle cx="1800.5" cy="2067.5" r="3.5" transform="rotate(90 1800.5 2067.5)" fill="#D9D9D9"/>
<ellipse cx="1841" cy="2014" rx="10" ry="7" transform="rotate(90 1841 2014)" fill="#D9D9D9"/>
<ellipse cx="1176" cy="2017.5" rx="13.5" ry="7" transform="rotate(90 1176 2017.5)" fill="#D9D9D9"/>
</g>
<g filter="url(#filter5_f_480_439)">
<circle cx="691.5" cy="3780.5" r="3.5" transform="rotate(-90 691.5 3780.5)" fill="#D9D9D9"/>
<circle cx="253.5" cy="3780.5" r="3.5" transform="rotate(-90 253.5 3780.5)" fill="#D9D9D9"/>
<circle cx="253.5" cy="4071.5" r="3.5" transform="rotate(-90 253.5 4071.5)" fill="#D9D9D9"/>
<ellipse cx="213" cy="4125" rx="10" ry="7" transform="rotate(-90 213 4125)" fill="#D9D9D9"/>
<ellipse cx="878" cy="4121.5" rx="13.5" ry="7" transform="rotate(-90 878 4121.5)" fill="#D9D9D9"/>
<ellipse cx="71" cy="4463" rx="6" ry="7" transform="rotate(-90 71 4463)" fill="#D9D9D9"/>
<ellipse cx="14.5" cy="3951" rx="7" ry="3.5" transform="rotate(-90 14.5 3951)" fill="#D9D9D9"/>
</g>
<g filter="url(#filter6_f_480_439)">
<ellipse cx="920" cy="5919.5" rx="8.5" ry="6" transform="rotate(90 920 5919.5)" fill="#D9D9D9"/>
<ellipse cx="1728" cy="5577" rx="6" ry="7" transform="rotate(90 1728 5577)" fill="#D9D9D9"/>
<ellipse cx="1784.5" cy="6089" rx="7" ry="3.5" transform="rotate(90 1784.5 6089)" fill="#D9D9D9"/>
</g>
<g filter="url(#filter7_f_480_439)">
<circle cx="1897.5" cy="5096.5" r="3.5" fill="#D9D9D9"/>
<circle cx="1897.5" cy="4658.5" r="3.5" fill="#D9D9D9"/>
<circle cx="1606.5" cy="4658.5" r="3.5" fill="#D9D9D9"/>
<ellipse cx="1553" cy="4618" rx="10" ry="7" fill="#D9D9D9"/>
<ellipse cx="1556.5" cy="5283" rx="13.5" ry="7" fill="#D9D9D9"/>
<ellipse cx="1215" cy="4476" rx="6" ry="7" fill="#D9D9D9"/>
<ellipse cx="1727" cy="4419.5" rx="7" ry="3.5" fill="#D9D9D9"/>
</g>
<g filter="url(#filter8_f_480_439)">
<circle cx="726.5" cy="6018.5" r="3.5" fill="#D9D9D9"/>
<circle cx="726.5" cy="5580.5" r="3.5" fill="#D9D9D9"/>
<circle cx="435.5" cy="5580.5" r="3.5" fill="#D9D9D9"/>
<ellipse cx="382" cy="5540" rx="10" ry="7" fill="#D9D9D9"/>
<ellipse cx="44" cy="5398" rx="6" ry="7" fill="#D9D9D9"/>
<ellipse cx="556" cy="5341.5" rx="7" ry="3.5" fill="#D9D9D9"/>
</g>
<path d="M1832.78 2514.25C1832.92 2513.24 1834.29 2513.05 1834.69 2513.98L1841.84 2530.67C1847.55 2544.01 1859.9 2553.34 1874.3 2555.19L1892.45 2557.53C1893.46 2557.66 1893.65 2559.04 1892.71 2559.44L1875.88 2566.6C1862.51 2572.29 1853.16 2584.61 1851.27 2599.01L1848.91 2617C1848.78 2618.01 1847.4 2618.2 1847 2617.27L1839.86 2600.58C1834.14 2587.23 1821.8 2577.91 1807.4 2576.05L1789.25 2573.72C1788.23 2573.59 1788.04 2572.21 1788.98 2571.81L1805.82 2564.65C1819.18 2558.96 1828.54 2546.64 1830.43 2532.24L1832.78 2514.25Z" fill="#FFFDCE"/>
<path fill-rule="evenodd" clip-rule="evenodd" d="M2144.5 1670.34C2589.41 1861.83 2724.32 2463.73 2730.42 3288.29C2731.02 3369.45 2795.12 3425.71 2873.88 3411.01L3133.59 3362.5C3207.04 3348.79 3266.4 3277.98 3266.19 3202.22C3263.73 2337.31 3399.39 1981.01 2419.87 1534.26C1440.35 1087.5 -68.0293 1717.2 -550.312 1308.35C-1032.59 899.494 -588.335 1238.7 -597.584 1311.82L-605.923 1377.74C-616.793 1463.67 -1579.63 1043.16 -471.565 1517.47C636.504 1991.79 1683.56 1471.94 2144.5 1670.34Z" fill="white"/>
<path fill-rule="evenodd" clip-rule="evenodd" d="M2144.5 1670.34C2589.41 1861.83 2724.32 2463.73 2730.42 3288.29C2730.97 3363.01 2842.52 3405.55 2860.23 3411.83C2861.84 3412.4 2870.09 3412.42 2871.79 3412.36C2887.57 3411.8 2967.08 3393.6 2982.6 3390.7C3010.43 3385.51 3033.09 3381.27 3081.04 3372.32C3158.34 3357.88 2855.86 1969.06 2247 1707C1636.68 1444.31 542.339 1863.45 -676.029 1487.27C-1894.4 1111.09 -772.712 1481.66 -781.962 1554.78L-790.301 1620.7C-801.171 1706.62 -1985.5 1080.23 -345 1636.54C1295.5 2192.84 1619 1648.34 2144.5 1670.34Z" fill="#7570C0"/>
<path fill-rule="evenodd" clip-rule="evenodd" d="M2105.5 1663.5C2535.17 1887.11 2723.5 2077 2634.13 3231.05C2628.78 3312.04 2741.15 3372.85 2820.77 3363.96L3083.34 3334.63C3157.6 3326.33 3221.99 3260.08 3227.33 3184.5C3288.17 2323.74 3448.99 1977.95 2512.16 1462.56C2507.93 1460.23 2503.54 1457.39 2499.67 1454.49C1284.91 544.806 184.473 1708.67 -444.5 895C-895.5 451.88 -472.815 943.599 -487.402 1015.84L-500.552 1080.97C-517.694 1165.87 -1447.1 675.884 -376.803 1230.18C609 1861 1660.35 1431.84 2105.5 1663.5Z" fill="#4635A3"/>
<path fill-rule="evenodd" clip-rule="evenodd" d="M2105.5 1663.5C2535.17 1887.11 2723.5 2077 2634.13 3231.05C2629.2 3305.61 2737.33 3356.21 2754.54 3363.78C2756.1 3364.46 2764.32 3365.09 2766.03 3365.15V3365.15C2781.8 3365.75 2862.43 3353.43 2878.12 3351.68C2906.25 3348.54 2929.17 3345.98 2977.64 3340.56C3055.8 3331.83 2969.21 2130.86 2251.36 1687.74C1535.38 1245.79 216.444 1708.56 -624.44 1189.18C-628.846 1186.46 -633.878 1183.86 -638.641 1181.83C-1816.48 678.69 -727.109 1172.53 -741.664 1244.62L-754.816 1309.75C-771.957 1394.65 -1675.57 1019.84 -631.066 1458.96C413.434 1898.08 1646 1499.71 2105.5 1663.5Z" fill="#5E43AC"/>
<mask id="mask1_480_439" style="mask-type:alpha" maskUnits="userSpaceOnUse" x="1661" y="1676" width="279" height="279">
<circle cx="1800.41" cy="1815.27" r="138.977" fill="#FB6A1D"/>
</mask>
<g mask="url(#mask1_480_439)">
<circle cx="1800.41" cy="1815.27" r="138.977" fill="#A29BD4"/>
<path fill-rule="evenodd" clip-rule="evenodd" d="M1720.65 1960.07C1757.02 1968.56 1870.49 1944 1920.87 1745.35L1992.01 1763.4C1935.74 1985.27 1793.21 2052.38 1703.97 2031.54L1720.65 1960.07Z" fill="black" fill-opacity="0.4"/>
</g>
<path d="M1630.19 1790.91C1655.07 1760.94 1696.45 1732.28 1746.08 1710.63C1795.72 1688.99 1849.94 1675.96 1897.94 1674.15L1881.17 1697.82C1842.73 1699.27 1799.3 1709.7 1759.55 1727.03C1719.81 1744.37 1686.66 1767.32 1666.74 1791.32L1630.19 1790.91Z" fill="#F3F3F3"/>
<path d="M1913.38 1673.96C1943.47 1674.39 1969.05 1679.64 1987.88 1689.23C2006.7 1698.83 2018.18 1712.48 2021.31 1728.98C2024.43 1745.47 2019.1 1764.31 2005.79 1783.81C1992.48 1803.32 1971.59 1822.9 1944.98 1840.82L1918.84 1831.3C1940.15 1816.95 1956.88 1801.27 1967.54 1785.64C1978.2 1770.02 1982.47 1754.94 1979.97 1741.72C1977.47 1728.51 1968.27 1717.58 1953.2 1709.9C1938.12 1702.21 1917.63 1698.01 1893.54 1697.67L1913.38 1673.96Z" fill="#F3F3F3"/>
<path d="M1621.08 1803.04C1603.85 1828.71 1600.61 1852.98 1611.83 1872.21C1623.05 1891.44 1648.13 1904.6 1683.32 1909.71L1709.29 1886.47C1681.11 1882.38 1661.02 1871.84 1652.03 1856.44C1643.05 1841.04 1645.65 1821.6 1659.44 1801.04L1621.08 1803.04Z" fill="#F3F3F3"/>
<path d="M1699.42 1911.42C1734.26 1913.89 1775.15 1909.21 1816.82 1897.99C1858.48 1886.76 1899 1869.5 1933.15 1848.44L1909.37 1837.4C1882.02 1854.27 1849.57 1868.09 1816.2 1877.08C1782.83 1886.07 1750.09 1889.82 1722.18 1887.84L1699.42 1911.42Z" fill="#F3F3F3"/>
<g clip-path="url(#clip1_480_439)">
<mask id="mask2_480_439" style="mask-type:alpha" maskUnits="userSpaceOnUse" x="1661" y="1676" width="279" height="279">
<path d="M1939.39 1815.27C1939.39 1892.02 1877.17 1954.24 1800.41 1954.24C1723.66 1954.24 1661.44 1892.02 1661.44 1815.27C1661.44 1738.51 1723.66 1676.29 1800.41 1676.29C1877.17 1676.29 1939.39 1738.51 1939.39 1815.27Z" fill="#FB6A1D"/>
</mask>
<g mask="url(#mask2_480_439)">
<path d="M1939.39 1815.27C1939.39 1892.02 1877.17 1954.24 1800.41 1954.24C1723.66 1954.24 1661.44 1892.02 1661.44 1815.27C1661.44 1738.51 1723.66 1676.29 1800.41 1676.29C1877.17 1676.29 1939.39 1738.51 1939.39 1815.27Z" fill="#A29BD4"/>
<path fill-rule="evenodd" clip-rule="evenodd" d="M1720.65 1960.07C1757.02 1968.56 1870.49 1944.01 1920.87 1745.36L1992.01 1763.4C1935.74 1985.28 1793.21 2052.38 1703.97 2031.55L1720.65 1960.07Z" fill="black" fill-opacity="0.4"/>
</g>
</g>
<path fill-rule="evenodd" clip-rule="evenodd" d="M1176.53 5301.22C1176.67 5301.36 1176.75 5301.55 1176.75 5301.75V5303.26C1177.42 5303.25 1178.16 5303.25 1179 5303.25H1183C1183.84 5303.25 1184.59 5303.25 1185.25 5303.26V5301.75C1185.25 5301.55 1185.33 5301.36 1185.47 5301.22C1185.61 5301.08 1185.8 5301 1186 5301C1186.2 5301 1186.39 5301.08 1186.53 5301.22C1186.67 5301.36 1186.75 5301.55 1186.75 5301.75V5303.33C1188.19 5303.45 1189.13 5303.73 1189.83 5304.42C1190.52 5305.12 1190.81 5306.06 1190.92 5307.5H1171.08C1171.2 5306.06 1171.48 5305.12 1172.17 5304.42C1172.87 5303.73 1173.81 5303.45 1175.25 5303.33V5301.75C1175.25 5301.55 1175.33 5301.36 1175.47 5301.22C1175.61 5301.08 1175.8 5301 1176 5301C1176.2 5301 1176.39 5301.08 1176.53 5301.22ZM1171.01 5309C1171 5309.67 1171 5310.41 1171 5311.25V5313.25C1171 5317.02 1171 5318.91 1172.17 5320.08C1173.34 5321.25 1175.23 5321.25 1179 5321.25H1183C1186.77 5321.25 1188.66 5321.25 1189.83 5320.08C1191 5318.91 1191 5317.02 1191 5313.25V5311.25C1191 5310.41 1191 5309.67 1190.99 5309H1171.01ZM1186.71 5312.96C1186.52 5313.15 1186.27 5313.25 1186 5313.25C1185.73 5313.25 1185.48 5313.15 1185.29 5312.96C1185.11 5312.77 1185 5312.52 1185 5312.25C1185 5311.99 1185.11 5311.73 1185.29 5311.54C1185.48 5311.36 1185.73 5311.25 1186 5311.25C1186.27 5311.25 1186.52 5311.36 1186.71 5311.54C1186.89 5311.73 1187 5311.99 1187 5312.25C1187 5312.52 1186.89 5312.77 1186.71 5312.96ZM1186.71 5316.96C1186.52 5317.15 1186.27 5317.25 1186 5317.25C1185.73 5317.25 1185.48 5317.15 1185.29 5316.96C1185.11 5316.77 1185 5316.52 1185 5316.25C1185 5315.99 1185.11 5315.73 1185.29 5315.54C1185.48 5315.36 1185.73 5315.25 1186 5315.25C1186.27 5315.25 1186.52 5315.36 1186.71 5315.54C1186.89 5315.73 1187 5315.99 1187 5316.25C1187 5316.52 1186.89 5316.77 1186.71 5316.96ZM1181.71 5312.96C1181.89 5312.77 1182 5312.52 1182 5312.25C1182 5311.99 1181.89 5311.73 1181.71 5311.54C1181.52 5311.36 1181.27 5311.25 1181 5311.25C1180.73 5311.25 1180.48 5311.36 1180.29 5311.54C1180.11 5311.73 1180 5311.99 1180 5312.25C1180 5312.52 1180.11 5312.77 1180.29 5312.96C1180.48 5313.15 1180.73 5313.25 1181 5313.25C1181.27 5313.25 1181.52 5313.15 1181.71 5312.96ZM1181.71 5316.96C1181.89 5316.77 1182 5316.52 1182 5316.25C1182 5315.99 1181.89 5315.73 1181.71 5315.54C1181.52 5315.36 1181.27 5315.25 1181 5315.25C1180.73 5315.25 1180.48 5315.36 1180.29 5315.54C1180.11 5315.73 1180 5315.99 1180 5316.25C1180 5316.52 1180.11 5316.77 1180.29 5316.96C1180.48 5317.15 1180.73 5317.25 1181 5317.25C1181.27 5317.25 1181.52 5317.15 1181.71 5316.96ZM1176.71 5312.96C1176.52 5313.15 1176.27 5313.25 1176 5313.25C1175.73 5313.25 1175.48 5313.15 1175.29 5312.96C1175.11 5312.77 1175 5312.52 1175 5312.25C1175 5311.99 1175.11 5311.73 1175.29 5311.54C1175.48 5311.36 1175.73 5311.25 1176 5311.25C1176.27 5311.25 1176.52 5311.36 1176.71 5311.54C1176.89 5311.73 1177 5311.99 1177 5312.25C1177 5312.52 1176.89 5312.77 1176.71 5312.96ZM1176.71 5316.96C1176.52 5317.15 1176.27 5317.25 1176 5317.25C1175.73 5317.25 1175.48 5317.15 1175.29 5316.96C1175.11 5316.77 1175 5316.52 1175 5316.25C1175 5315.99 1175.11 5315.73 1175.29 5315.54C1175.48 5315.36 1175.73 5315.25 1176 5315.25C1176.27 5315.25 1176.52 5315.36 1176.71 5315.54C1176.89 5315.73 1177 5315.99 1177 5316.25C1177 5316.52 1176.89 5316.77 1176.71 5316.96Z" fill="#161463"/>
<path d="M174.05 1749C174.652 1748.28 175.82 1748.71 175.816 1749.64L175.752 1766.42C175.751 1766.72 175.883 1767 176.114 1767.19L189.111 1777.96C189.836 1778.56 189.404 1779.74 188.462 1779.73L171.585 1779.55C171.286 1779.55 171.002 1779.68 170.809 1779.91L160.023 1792.76C159.421 1793.47 158.253 1793.05 158.257 1792.11L158.321 1775.34C158.323 1775.04 158.19 1774.75 157.959 1774.56L144.963 1763.8C144.237 1763.19 144.669 1762.02 145.611 1762.03L162.488 1762.2C162.787 1762.2 163.072 1762.07 163.264 1761.84L174.05 1749Z" fill="#EAD4B5"/>
<path d="M1760.07 1457.89C1760.43 1458.92 1761.95 1458.71 1762.01 1457.62L1762.63 1447.9C1763.22 1438.67 1769.27 1430.69 1778 1427.64L1787.28 1424.4C1788.31 1424.04 1788.1 1422.53 1787.01 1422.46L1777.21 1421.86C1767.98 1421.29 1759.98 1415.25 1756.92 1406.52L1753.69 1397.33C1753.33 1396.3 1751.82 1396.51 1751.75 1397.6L1751.13 1407.32C1750.55 1416.55 1744.49 1424.53 1735.76 1427.58L1726.49 1430.81C1725.46 1431.17 1725.67 1432.69 1726.76 1432.76L1736.56 1433.36C1745.79 1433.93 1753.78 1439.97 1756.85 1448.7L1760.07 1457.89Z" fill="#3EC3FF"/>
</g>
<defs>
<filter id="filter0_f_480_439" x="-205.493" y="283.507" width="339.133" height="339.133" filterUnits="userSpaceOnUse" color-interpolation-filters="sRGB">
<feFlood flood-opacity="0" result="BackgroundImageFix"/>
<feBlend mode="normal" in="SourceGraphic" in2="BackgroundImageFix" result="shape"/>
<feGaussianBlur stdDeviation="6.85" result="effect1_foregroundBlur_480_439"/>
</filter>
<filter id="filter1_f_480_439" x="102" y="31" width="712" height="894" filterUnits="userSpaceOnUse" color-interpolation-filters="sRGB">
<feFlood flood-opacity="0" result="BackgroundImageFix"/>
<feBlend mode="normal" in="SourceGraphic" in2="BackgroundImageFix" result="shape"/>
<feGaussianBlur stdDeviation="5" result="effect1_foregroundBlur_480_439"/>
</filter>
<filter id="filter2_f_480_439" x="-103" y="2212" width="712" height="894" filterUnits="userSpaceOnUse" color-interpolation-filters="sRGB">
<feFlood flood-opacity="0" result="BackgroundImageFix"/>
<feBlend mode="normal" in="SourceGraphic" in2="BackgroundImageFix" result="shape"/>
<feGaussianBlur stdDeviation="5" result="effect1_foregroundBlur_480_439"/>
</filter>
<filter id="filter3_f_480_439" x="1159" y="2969" width="712" height="894" filterUnits="userSpaceOnUse" color-interpolation-filters="sRGB">
<feFlood flood-opacity="0" result="BackgroundImageFix"/>
<feBlend mode="normal" in="SourceGraphic" in2="BackgroundImageFix" result="shape"/>
<feGaussianBlur stdDeviation="5" result="effect1_foregroundBlur_480_439"/>
</filter>
<filter id="filter4_f_480_439" x="1159" y="1660" width="894" height="712" filterUnits="userSpaceOnUse" color-interpolation-filters="sRGB">
<feFlood flood-opacity="0" result="BackgroundImageFix"/>
<feBlend mode="normal" in="SourceGraphic" in2="BackgroundImageFix" result="shape"/>
<feGaussianBlur stdDeviation="5" result="effect1_foregroundBlur_480_439"/>
</filter>
<filter id="filter5_f_480_439" x="1.00001" y="3767" width="894" height="712" filterUnits="userSpaceOnUse" color-interpolation-filters="sRGB">
<feFlood flood-opacity="0" result="BackgroundImageFix"/>
<feBlend mode="normal" in="SourceGraphic" in2="BackgroundImageFix" result="shape"/>
<feGaussianBlur stdDeviation="5" result="effect1_foregroundBlur_480_439"/>
</filter>
<filter id="filter6_f_480_439" x="904" y="5561" width="894" height="545" filterUnits="userSpaceOnUse" color-interpolation-filters="sRGB">
<feFlood flood-opacity="0" result="BackgroundImageFix"/>
<feBlend mode="normal" in="SourceGraphic" in2="BackgroundImageFix" result="shape"/>
<feGaussianBlur stdDeviation="5" result="effect1_foregroundBlur_480_439"/>
</filter>
<filter id="filter7_f_480_439" x="1199" y="4406" width="712" height="894" filterUnits="userSpaceOnUse" color-interpolation-filters="sRGB">
<feFlood flood-opacity="0" result="BackgroundImageFix"/>
<feBlend mode="normal" in="SourceGraphic" in2="BackgroundImageFix" result="shape"/>
<feGaussianBlur stdDeviation="5" result="effect1_foregroundBlur_480_439"/>
</filter>
<filter id="filter8_f_480_439" x="28" y="5328" width="712" height="704" filterUnits="userSpaceOnUse" color-interpolation-filters="sRGB">
<feFlood flood-opacity="0" result="BackgroundImageFix"/>
<feBlend mode="normal" in="SourceGraphic" in2="BackgroundImageFix" result="shape"/>
<feGaussianBlur stdDeviation="5" result="effect1_foregroundBlur_480_439"/>
</filter>
<linearGradient id="paint0_linear_480_439" x1="960" y1="0" x2="960" y2="6561" gradientUnits="userSpaceOnUse">
<stop stop-color="#0C0B33"/>
<stop offset="0.158337" stop-color="#242199"/>
<stop offset="0.299894" stop-color="#242199"/>
<stop offset="0.464976" stop-color="#0C0B33"/>
<stop offset="0.596564" stop-color="#0C0B33"/>
<stop offset="0.724563" stop-color="#242199"/>
<stop offset="0.9" stop-color="#0C0B33"/>
</linearGradient>
<clipPath id="clip0_480_439">
<rect width="1920" height="6561" fill="white"/>
</clipPath>
<clipPath id="clip1_480_439">
<rect width="277.953" height="139.611" fill="white" transform="translate(1661.44 1676.29)"/>
</clipPath>
</defs>
</svg>
