<svg width="889" height="889" viewBox="0 0 889 889" fill="none" xmlns="http://www.w3.org/2000/svg">
<mask id="mask0_490_1061" style="mask-type:alpha" maskUnits="userSpaceOnUse" x="0" y="0" width="889" height="889">
<circle cx="444.5" cy="444.5" r="444.5" fill="#FB6A1D"/>
</mask>
<g mask="url(#mask0_490_1061)">
<circle cx="444.5" cy="444.5" r="444.5" fill="#FF8F20"/>
<path d="M994.548 310.522C994.548 408.046 915.49 487.104 817.966 487.104C720.442 487.104 641.384 408.046 641.384 310.522C641.384 212.998 720.442 133.94 817.966 133.94C915.49 133.94 994.548 212.998 994.548 310.522Z" fill="#FF9D3A"/>
<path d="M235.436 604.835C235.436 710.206 150.017 795.625 44.6464 795.625C-60.724 795.625 -146.144 710.206 -146.144 604.835C-146.144 499.465 -60.724 414.045 44.6464 414.045C150.017 414.045 235.436 499.465 235.436 604.835Z" fill="#FF9D3A"/>
<path d="M332.867 223.246C332.867 272.568 292.883 312.552 243.561 312.552C194.239 312.552 154.255 272.568 154.255 223.246C154.255 173.923 194.239 133.94 243.561 133.94C292.883 133.94 332.867 173.923 332.867 223.246Z" fill="#FF9D3A"/>
<path d="M312.574 775.322C312.574 824.644 272.59 864.628 223.268 864.628C173.946 864.628 133.962 824.644 133.962 775.322C133.962 725.999 173.946 686.016 223.268 686.016C272.59 686.016 312.574 725.999 312.574 775.322Z" fill="#FF9D3A"/>
<path d="M349.105 444.488C349.105 468.028 330.022 487.111 306.482 487.111C282.941 487.111 263.858 468.028 263.858 444.488C263.858 420.948 282.941 401.865 306.482 401.865C330.022 401.865 349.105 420.948 349.105 444.488Z" fill="#FF9D3A"/>
<path d="M673.867 621.079C673.867 650.224 650.24 673.851 621.095 673.851C591.95 673.851 568.323 650.224 568.323 621.079C568.323 591.934 591.95 568.307 621.095 568.307C650.24 568.307 673.867 591.934 673.867 621.079Z" fill="#FF9D3A"/>
<path fill-rule="evenodd" clip-rule="evenodd" d="M189.391 907.62C305.694 934.772 668.611 856.224 829.76 220.877L1057.3 278.59C877.308 988.227 421.454 1202.85 136.024 1136.22L189.391 907.62Z" fill="black" fill-opacity="0.41"/>
</g>
</svg>
