<svg width="684" height="684" viewBox="0 0 684 684" fill="none" xmlns="http://www.w3.org/2000/svg">
<mask id="mask0_490_1072" style="mask-type:alpha" maskUnits="userSpaceOnUse" x="0" y="0" width="684" height="684">
<circle cx="342" cy="342" r="342" fill="#FB6A1D"/>
</mask>
<g mask="url(#mask0_490_1072)">
<circle cx="342" cy="342" r="342" fill="#FF0000"/>
<path d="M462.208 4.94319C516.776 133.567 420.931 297.266 248.133 370.574C75.3353 443.882 -108.981 399.04 -163.549 270.416C-218.117 141.791 -122.272 -21.907 50.5261 -95.2152C223.324 -168.523 407.641 -123.681 462.208 4.94319ZM-101.246 243.984C-57.544 346.995 90.0697 382.908 228.459 324.198C366.848 265.488 443.607 134.386 399.905 31.3748C356.203 -71.6366 208.59 -107.55 70.2007 -48.8392C-68.1883 9.87121 -144.947 140.973 -101.246 243.984Z" fill="#D0A58D"/>
<path d="M830.299 -97.3196C911.401 93.8495 742.349 348.433 452.712 471.31C163.075 594.186 -137.468 538.824 -218.57 347.654C-299.672 156.485 -130.621 -98.0986 159.016 -220.975C448.653 -343.851 749.197 -288.489 830.299 -97.3196ZM-114.14 303.351C-49.1878 456.453 191.509 500.791 423.471 402.383C655.433 303.975 790.821 100.086 725.869 -53.016C660.917 -206.118 420.22 -250.456 188.258 -152.048C-43.704 -53.6399 -179.092 150.249 -114.14 303.351Z" fill="#D0A58D"/>
<path d="M354.213 43.9494C368.414 68.2076 315.044 125.855 235.008 172.707C154.972 219.56 78.5784 237.877 64.3777 213.619C50.177 189.36 103.547 131.714 183.583 84.8607C263.619 38.0078 340.012 19.6912 354.213 43.9494ZM93.235 196.726C104.608 216.153 165.79 201.484 229.888 163.961C293.986 126.438 336.729 80.2701 325.356 60.8424C313.983 41.4147 252.801 56.084 188.703 93.6071C124.604 131.13 81.862 177.298 93.235 196.726Z" fill="#D0A58D"/>
<g style="mix-blend-mode:darken">
<path fill-rule="evenodd" clip-rule="evenodd" d="M145.712 698.343C235.196 719.234 514.425 658.799 638.414 169.96L813.484 214.365C674.997 760.362 324.262 925.497 104.651 874.227L145.712 698.343Z" fill="#C01C9C"/>
</g>
</g>
</svg>
