<svg width="116" height="111" viewBox="0 0 116 111" fill="none" xmlns="http://www.w3.org/2000/svg">
<path d="M16.288 94.408H5.248L2.432 101H0.96L10.432 78.6H12.032L22.464 101H19.36L16.288 94.408ZM15.616 92.968L10.592 82.184H10.464L5.856 92.968H15.616ZM46.8295 96.872L47.7895 97.736C47.5122 98.056 47.1068 98.4293 46.5735 98.856C46.0402 99.2827 45.3682 99.688 44.5575 100.072C43.7682 100.435 42.8295 100.744 41.7415 101C40.6748 101.256 39.4588 101.384 38.0935 101.384C35.9388 101.384 34.0828 101.053 32.5255 100.392C30.9682 99.7093 29.6882 98.824 28.6855 97.736C27.6828 96.6267 26.9362 95.368 26.4455 93.96C25.9762 92.5307 25.7415 91.0693 25.7415 89.576C25.7415 87.848 26.0402 86.2907 26.6375 84.904C27.2348 83.496 28.0775 82.3013 29.1655 81.32C30.2535 80.3173 31.5548 79.5493 33.0695 79.016C34.6055 78.4827 36.3015 78.216 38.1575 78.216C39.4375 78.216 40.5788 78.344 41.5815 78.6C42.5842 78.856 43.4588 79.208 44.2055 79.656C44.9522 80.104 45.5708 80.6373 46.0615 81.256C46.5735 81.8747 46.9895 82.5467 47.3095 83.272H44.9415C44.7922 82.824 44.5255 82.3867 44.1415 81.96C43.7788 81.512 43.2988 81.1173 42.7015 80.776C42.1255 80.4347 41.4535 80.1573 40.6855 79.944C39.9388 79.7307 39.1068 79.624 38.1895 79.624C36.8455 79.624 35.5975 79.8693 34.4455 80.36C33.3148 80.8507 32.3335 81.5333 31.5015 82.408C30.6695 83.2827 30.0188 84.328 29.5495 85.544C29.1015 86.7387 28.8775 88.0613 28.8775 89.512C28.8775 90.8773 29.0908 92.1893 29.5175 93.448C29.9655 94.7067 30.6162 95.816 31.4695 96.776C32.3228 97.736 33.3895 98.504 34.6695 99.08C35.9495 99.656 37.4215 99.944 39.0855 99.944C42.0722 99.944 44.6535 98.92 46.8295 96.872ZM61.2055 101H58.2935V80.36H49.7175V78.6H69.7815V80.36H61.2055V101ZM77.4932 91.656V101H74.5812V78.6H82.0692C83.3066 78.6 84.3839 78.7813 85.3012 79.144C86.2186 79.5067 86.9759 79.9973 87.5732 80.616C88.1919 81.2133 88.6506 81.928 88.9492 82.76C89.2479 83.5707 89.3972 84.424 89.3972 85.32C89.3972 86.2587 89.2266 87.144 88.8853 87.976C88.5439 88.7867 88.0319 89.512 87.3493 90.152C86.6879 90.7707 85.8559 91.2613 84.8532 91.624C83.8506 91.9867 82.6986 92.168 81.3972 92.168C80.6292 92.168 79.9252 92.1253 79.2852 92.04C78.6452 91.9333 78.0479 91.8053 77.4932 91.656ZM77.4932 80.008V90.344C77.9412 90.5147 78.4426 90.632 78.9972 90.696C79.5519 90.7387 80.1599 90.76 80.8212 90.76C81.7812 90.76 82.6026 90.6 83.2852 90.28C83.9679 89.96 84.5332 89.544 84.9812 89.032C85.4292 88.52 85.7492 87.9547 85.9412 87.336C86.1546 86.696 86.2612 86.0667 86.2612 85.448C86.2612 84.808 86.1439 84.168 85.9093 83.528C85.6959 82.8667 85.3652 82.28 84.9172 81.768C84.4692 81.2347 83.9039 80.808 83.2212 80.488C82.5386 80.168 81.7492 80.008 80.8532 80.008H77.4932ZM107.912 94.408H96.8717L94.0557 101H92.5837L102.056 78.6H103.656L114.088 101H110.984L107.912 94.408ZM107.24 92.968L102.216 82.184H102.088L97.4797 92.968H107.24Z" fill="#FEE4B1"/>
<g clip-path="url(#clip0_480_1036)">
<path d="M57.5 0C57.5 0 50.8533 6.10063 50.8533 15.2901C51.3721 21.1044 55.7195 25.5588 57.5 26.5609C59.2805 25.5533 63.6225 21.1044 64.1468 15.2901C64.1468 6.10063 57.5 0 57.5 0Z" fill="url(#paint0_linear_480_1036)"/>
<path d="M57.5 20.9998C55.9326 20.1133 52.3716 16.5455 51.1919 11.7277C50.9789 12.8565 50.8533 14.0458 50.8533 15.2901C51.3721 21.1044 55.7195 25.5588 57.5 26.5609C59.2805 25.5533 63.6225 21.1044 64.1468 15.2901C64.1468 14.0403 64.0212 12.851 63.8082 11.7277C62.6285 16.5455 59.073 20.1133 57.5 20.9998Z" fill="url(#paint1_linear_480_1036)"/>
<path d="M67.0906 8.17088C67.7623 10.3017 68.2047 12.6913 68.2047 15.2956V15.4828L68.1883 15.6645C67.6859 21.2586 64.5946 25.6689 61.9785 28.1851L84.0652 58H104.005L67.0906 8.17088Z" fill="url(#paint2_linear_480_1036)"/>
<path d="M68.2047 15.4773L68.1883 15.659C67.6859 21.2531 64.5946 25.6634 61.9785 28.1796L74.3599 44.8958C78.1448 27.1665 67.0906 8.16537 67.0906 8.16537C67.7623 10.2962 68.2047 12.6858 68.2047 15.2901V15.4773Z" fill="url(#paint3_linear_480_1036)"/>
<path d="M104 58C93.1423 43.3706 74.3599 44.9013 74.3599 44.9013L84.0597 58H104Z" fill="url(#paint4_linear_480_1036)"/>
<path d="M47.9094 8.17088C47.2377 10.3017 46.7953 12.6913 46.7953 15.2956V15.4828L46.8117 15.6645C47.3141 21.2586 50.4054 25.6689 53.0215 28.1851L30.9348 58H11L47.9094 8.17088Z" fill="url(#paint5_linear_480_1036)"/>
<path d="M46.7952 15.4773L46.8116 15.659C47.3141 21.2531 50.4053 25.6634 53.0214 28.1796L40.64 44.8958C36.8551 27.1665 47.9094 8.16537 47.9094 8.16537C47.2376 10.2962 46.7952 12.6858 46.7952 15.2901V15.4773Z" fill="url(#paint6_linear_480_1036)"/>
<path d="M11 58C21.8576 43.3706 40.6401 44.9013 40.6401 44.9013L30.9403 58H11Z" fill="url(#paint7_linear_480_1036)"/>
</g>
<defs>
<linearGradient id="paint0_linear_480_1036" x1="56.0472" y1="-0.346877" x2="59.305" y2="33.1024" gradientUnits="userSpaceOnUse">
<stop stop-color="#FFFDCE"/>
<stop offset="1" stop-color="#FB4B00"/>
</linearGradient>
<linearGradient id="paint1_linear_480_1036" x1="57.4946" y1="15.3011" x2="57.0172" y2="29.1924" gradientUnits="userSpaceOnUse">
<stop stop-color="#FB4B00"/>
<stop offset="1" stop-color="#FFFDCE"/>
</linearGradient>
<linearGradient id="paint2_linear_480_1036" x1="61.9785" y1="33.0854" x2="104" y2="33.0854" gradientUnits="userSpaceOnUse">
<stop offset="0.01" stop-color="#2489C6"/>
<stop offset="0.153154" stop-color="#0386EA"/>
<stop offset="1" stop-color="#232763"/>
</linearGradient>
<linearGradient id="paint3_linear_480_1036" x1="61.9785" y1="26.5333" x2="75.1519" y2="26.5333" gradientUnits="userSpaceOnUse">
<stop stop-color="#FFFDCE"/>
<stop offset="1" stop-color="#FB4B00"/>
</linearGradient>
<linearGradient id="paint4_linear_480_1036" x1="74.3599" y1="51.4259" x2="104" y2="51.4259" gradientUnits="userSpaceOnUse">
<stop stop-color="#FFFDCE"/>
<stop offset="1" stop-color="#C5592F"/>
</linearGradient>
<linearGradient id="paint5_linear_480_1036" x1="11" y1="-9.35628e-07" x2="53.0215" y2="-9.35628e-07" gradientUnits="userSpaceOnUse">
<stop offset="0.01" stop-color="#2489C6"/>
<stop offset="0.0981537" stop-color="#0386EA"/>
<stop offset="1" stop-color="#232763"/>
</linearGradient>
<linearGradient id="paint6_linear_480_1036" x1="39.8481" y1="26.5333" x2="53.0214" y2="26.5333" gradientUnits="userSpaceOnUse">
<stop stop-color="#FFFDCE"/>
<stop offset="1" stop-color="#FB4B00"/>
</linearGradient>
<linearGradient id="paint7_linear_480_1036" x1="11" y1="51.4259" x2="40.6401" y2="51.4259" gradientUnits="userSpaceOnUse">
<stop stop-color="#FFFDCE"/>
<stop offset="1" stop-color="#C5592F"/>
</linearGradient>
<clipPath id="clip0_480_1036">
<rect width="93" height="58" fill="white" transform="translate(11)"/>
</clipPath>
</defs>
</svg>
