<svg width="1549" height="1160" viewBox="0 0 1549 1160" fill="none" xmlns="http://www.w3.org/2000/svg">
<mask id="mask0_529_163" style="mask-type:alpha" maskUnits="userSpaceOnUse" x="340" y="257" width="777" height="774">
<ellipse cx="728.527" cy="644.18" rx="388.471" ry="386.809" fill="#FB6A1D"/>
</mask>
<g mask="url(#mask0_529_163)">
<ellipse cx="728.527" cy="644.18" rx="388.471" ry="386.809" fill="#2489C6"/>
<g style="mix-blend-mode:darken">
<path fill-rule="evenodd" clip-rule="evenodd" d="M395.5 871.945C472.765 942.645 782.63 1039.27 1173.11 626.179L1322.34 767.986C886.202 1229.38 448.148 1196.07 258.524 1022.56L395.5 871.945Z" fill="#165277"/>
</g>
</g>
<path d="M1331.39 974.741C1268.47 996.541 1179.93 998.957 1074.99 981.736C970.051 964.515 852.578 928.288 734.841 876.841L745.807 794.32C830.813 831.465 915.629 857.62 991.394 870.054C1067.16 882.488 1131.09 880.744 1176.51 865.004L1331.39 974.741Z" fill="#F3F3F3"/>
<path d="M117.869 337.422C110.598 292.043 121.539 253.841 150.025 225.142C178.511 196.444 223.946 177.85 283.563 170.493C343.179 163.135 415.73 167.169 496.795 182.348C577.86 197.527 665.744 223.533 755.093 258.783L760.429 348.082C695.919 322.632 632.468 303.855 573.938 292.896C515.409 281.937 463.028 279.024 419.984 284.336C376.941 289.648 344.137 303.073 323.57 323.793C303.003 344.514 295.104 372.095 300.354 404.859L117.869 337.422Z" fill="#F3F3F3"/>
<path d="M1008.88 382.861C1089.7 430.532 1163.66 482.835 1226.53 536.783C1289.41 590.732 1339.97 645.271 1375.33 697.285C1410.69 749.3 1430.16 797.771 1432.62 839.932C1435.09 882.093 1420.5 917.118 1389.69 943.007L1218.61 842.091C1240.85 823.4 1251.39 798.112 1249.61 767.672C1247.83 737.231 1233.77 702.235 1208.24 664.681C1182.71 627.126 1146.2 587.749 1100.81 548.798C1055.41 509.847 1002.01 472.085 943.666 437.666L1008.88 382.861Z" fill="#F3F3F3"/>
<g clip-path="url(#clip0_529_163)">
<mask id="mask1_529_163" style="mask-type:alpha" maskUnits="userSpaceOnUse" x="340" y="257" width="778" height="774">
<ellipse cx="729.032" cy="643.809" rx="388.966" ry="386.809" fill="#FB6A1D"/>
</mask>
<g mask="url(#mask1_529_163)">
<ellipse cx="729.032" cy="643.809" rx="388.966" ry="386.809" fill="#2489C6"/>
<g style="mix-blend-mode:darken">
<path fill-rule="evenodd" clip-rule="evenodd" d="M389.999 871.945C467.959 942.645 780.612 1039.27 1174.61 626.179L1325.18 767.986C885.117 1229.38 443.12 1196.07 251.79 1022.56L389.999 871.945Z" fill="#165277"/>
</g>
</g>
</g>
<path d="M686.541 854.884C555.941 793.189 433.611 716.415 335.366 634.487C237.121 552.558 167.479 469.244 135.444 395.314L313.043 446.657C336.172 500.034 386.454 560.188 457.386 619.34C528.319 678.492 616.642 733.923 710.935 778.467L686.541 854.884Z" fill="#F3F3F3"/>
<defs>
<clipPath id="clip0_529_163">
<rect width="724" height="505" fill="white" transform="translate(399.998 257)"/>
</clipPath>
</defs>
</svg>
